<mxfile host="app.diagrams.net" agent="Mozilla/5.0 (Windows NT 10.0; Win64; x64) AppleWebKit/537.36 (KHTML, like Gecko) Chrome/136.0.0.0 Safari/537.36" version="27.1.1">
  <diagram name="Trang-1" id="aEfG4FIThJf0uxHbzFky">
    <mxGraphModel dx="2020" dy="2069" grid="1" gridSize="10" guides="1" tooltips="1" connect="1" arrows="1" fold="1" page="1" pageScale="1" pageWidth="827" pageHeight="1169" math="0" shadow="0">
      <root>
        <mxCell id="0" />
        <mxCell id="1" parent="0" />
        <mxCell id="SpAq-5becOCAjdBePUh8-21" value="&lt;div style=&quot;color: rgb(204, 204, 204); background-color: rgb(31, 31, 31); font-family: Consolas, &amp;quot;Courier New&amp;quot;, monospace; font-weight: normal; font-size: 14px; line-height: 19px; white-space: pre;&quot;&gt;&lt;div&gt;&lt;span style=&quot;color: rgb(204, 204, 204);&quot;&gt;{&lt;/span&gt;&lt;/div&gt;&lt;div&gt;&lt;span style=&quot;color: rgb(204, 204, 204);&quot;&gt;&amp;nbsp; &amp;nbsp; &lt;/span&gt;&lt;span style=&quot;color: rgb(156, 220, 254);&quot;&gt;&quot;errors&quot;&lt;/span&gt;&lt;span style=&quot;color: rgb(204, 204, 204);&quot;&gt;:[&lt;/span&gt;&lt;/div&gt;&lt;div&gt;&lt;span style=&quot;color: rgb(204, 204, 204);&quot;&gt;&amp;nbsp; &amp;nbsp; &amp;nbsp; &amp;nbsp; {&lt;/span&gt;&lt;/div&gt;&lt;div&gt;&lt;span style=&quot;color: rgb(204, 204, 204);&quot;&gt;&amp;nbsp; &amp;nbsp; &amp;nbsp; &amp;nbsp; &amp;nbsp; &amp;nbsp; &lt;/span&gt;&lt;span style=&quot;color: rgb(156, 220, 254);&quot;&gt;&quot;message&quot;&lt;/span&gt;&lt;span style=&quot;color: rgb(204, 204, 204);&quot;&gt;: &lt;/span&gt;&lt;span style=&quot;color: rgb(206, 145, 120);&quot;&gt;&quot;This is Error 1&quot;&lt;/span&gt;&lt;span style=&quot;color: rgb(204, 204, 204);&quot;&gt;,&lt;/span&gt;&lt;/div&gt;&lt;div&gt;&lt;span style=&quot;color: rgb(204, 204, 204);&quot;&gt;&amp;nbsp; &amp;nbsp; &amp;nbsp; &amp;nbsp; &amp;nbsp; &amp;nbsp; &lt;/span&gt;&lt;span style=&quot;color: rgb(156, 220, 254);&quot;&gt;&quot;details&quot;?&lt;/span&gt;&lt;span style=&quot;color: rgb(204, 204, 204);&quot;&gt;: &lt;/span&gt;&lt;span style=&quot;color: rgb(206, 145, 120);&quot;&gt;&quot;You are missing ABC XYZ&quot;&lt;/span&gt;&lt;/div&gt;&lt;div&gt;&lt;span style=&quot;color: rgb(204, 204, 204);&quot;&gt;&amp;nbsp; &amp;nbsp; &amp;nbsp; &amp;nbsp; }&lt;/span&gt;&lt;/div&gt;&lt;div&gt;&lt;span style=&quot;color: rgb(204, 204, 204);&quot;&gt;&amp;nbsp; &amp;nbsp; ]&lt;/span&gt;&lt;/div&gt;&lt;div&gt;&lt;span style=&quot;color: rgb(204, 204, 204);&quot;&gt;}&lt;/span&gt;&lt;/div&gt;&lt;/div&gt;" style="text;whiteSpace=wrap;html=1;" parent="1" vertex="1">
          <mxGeometry x="1230" y="-780" width="360" height="180" as="geometry" />
        </mxCell>
        <mxCell id="4xOe3O0P_bP2OEVuNeio-2" value="/api/users/signout" style="rounded=0;whiteSpace=wrap;html=1;" parent="1" vertex="1">
          <mxGeometry x="1350" y="-580" width="120" height="60" as="geometry" />
        </mxCell>
        <mxCell id="-9gFP3Wba35itGXk4Bwu-5" style="edgeStyle=orthogonalEdgeStyle;rounded=0;orthogonalLoop=1;jettySize=auto;html=1;exitX=0.5;exitY=1;exitDx=0;exitDy=0;" edge="1" parent="1" source="4xOe3O0P_bP2OEVuNeio-6">
          <mxGeometry relative="1" as="geometry">
            <mxPoint x="210" y="-650" as="targetPoint" />
          </mxGeometry>
        </mxCell>
        <mxCell id="4xOe3O0P_bP2OEVuNeio-6" value="&lt;span style=&quot;font-weight: 700;&quot;&gt;API&lt;/span&gt;" style="rounded=1;whiteSpace=wrap;html=1;" parent="1" vertex="1">
          <mxGeometry x="150" y="-970" width="120" height="60" as="geometry" />
        </mxCell>
        <mxCell id="-9gFP3Wba35itGXk4Bwu-7" style="edgeStyle=orthogonalEdgeStyle;rounded=0;orthogonalLoop=1;jettySize=auto;html=1;exitX=0.5;exitY=1;exitDx=0;exitDy=0;" edge="1" parent="1" source="4xOe3O0P_bP2OEVuNeio-7">
          <mxGeometry relative="1" as="geometry">
            <mxPoint x="1020" y="-630" as="targetPoint" />
          </mxGeometry>
        </mxCell>
        <mxCell id="4xOe3O0P_bP2OEVuNeio-7" value="&lt;span style=&quot;font-weight: 700;&quot;&gt;Client&lt;/span&gt;" style="rounded=1;whiteSpace=wrap;html=1;" parent="1" vertex="1">
          <mxGeometry x="960" y="-960" width="120" height="60" as="geometry" />
        </mxCell>
        <mxCell id="-9gFP3Wba35itGXk4Bwu-6" style="edgeStyle=orthogonalEdgeStyle;rounded=0;orthogonalLoop=1;jettySize=auto;html=1;exitX=0.5;exitY=1;exitDx=0;exitDy=0;" edge="1" parent="1" source="4xOe3O0P_bP2OEVuNeio-8">
          <mxGeometry relative="1" as="geometry">
            <mxPoint x="590" y="-640" as="targetPoint" />
          </mxGeometry>
        </mxCell>
        <mxCell id="4xOe3O0P_bP2OEVuNeio-8" value="&lt;span style=&quot;font-weight: 700;&quot;&gt;Auth&lt;/span&gt;" style="rounded=1;whiteSpace=wrap;html=1;" parent="1" vertex="1">
          <mxGeometry x="530" y="-970" width="120" height="60" as="geometry" />
        </mxCell>
        <mxCell id="-9gFP3Wba35itGXk4Bwu-4" style="edgeStyle=orthogonalEdgeStyle;rounded=0;orthogonalLoop=1;jettySize=auto;html=1;exitX=1;exitY=0.5;exitDx=0;exitDy=0;entryX=0;entryY=0.5;entryDx=0;entryDy=0;" edge="1" parent="1" source="-9gFP3Wba35itGXk4Bwu-1" target="-9gFP3Wba35itGXk4Bwu-2">
          <mxGeometry relative="1" as="geometry" />
        </mxCell>
        <mxCell id="-9gFP3Wba35itGXk4Bwu-1" value="Check in DB" style="rounded=0;whiteSpace=wrap;html=1;" vertex="1" parent="1">
          <mxGeometry x="530" y="-770" width="120" height="60" as="geometry" />
        </mxCell>
        <mxCell id="-9gFP3Wba35itGXk4Bwu-2" value="&lt;div&gt;200 status&lt;/div&gt;JWT" style="rounded=0;whiteSpace=wrap;html=1;" vertex="1" parent="1">
          <mxGeometry x="960" y="-770" width="120" height="60" as="geometry" />
        </mxCell>
        <mxCell id="4xOe3O0P_bP2OEVuNeio-1" value="/api/users/signin" style="rounded=0;whiteSpace=wrap;html=1;" parent="1" vertex="1">
          <mxGeometry x="150" y="-870" width="120" height="60" as="geometry" />
        </mxCell>
        <mxCell id="-9gFP3Wba35itGXk4Bwu-9" value="" style="endArrow=classic;html=1;rounded=0;entryX=1;entryY=0.5;entryDx=0;entryDy=0;" edge="1" parent="1" target="4xOe3O0P_bP2OEVuNeio-1">
          <mxGeometry width="50" height="50" relative="1" as="geometry">
            <mxPoint x="1020" y="-840" as="sourcePoint" />
            <mxPoint x="690" y="-850" as="targetPoint" />
          </mxGeometry>
        </mxCell>
        <mxCell id="-9gFP3Wba35itGXk4Bwu-11" style="edgeStyle=orthogonalEdgeStyle;rounded=0;orthogonalLoop=1;jettySize=auto;html=1;exitX=1;exitY=0.5;exitDx=0;exitDy=0;entryX=0;entryY=0.5;entryDx=0;entryDy=0;" edge="1" parent="1" target="-9gFP3Wba35itGXk4Bwu-1">
          <mxGeometry relative="1" as="geometry">
            <mxPoint x="210" y="-740.59" as="sourcePoint" />
            <mxPoint x="510" y="-740.59" as="targetPoint" />
          </mxGeometry>
        </mxCell>
        <mxCell id="-9gFP3Wba35itGXk4Bwu-12" style="edgeStyle=orthogonalEdgeStyle;rounded=0;orthogonalLoop=1;jettySize=auto;html=1;exitX=0.5;exitY=1;exitDx=0;exitDy=0;" edge="1" parent="1" source="-9gFP3Wba35itGXk4Bwu-13">
          <mxGeometry relative="1" as="geometry">
            <mxPoint x="220" y="-110" as="targetPoint" />
          </mxGeometry>
        </mxCell>
        <mxCell id="-9gFP3Wba35itGXk4Bwu-13" value="&lt;span style=&quot;font-weight: 700;&quot;&gt;API&lt;/span&gt;" style="rounded=1;whiteSpace=wrap;html=1;" vertex="1" parent="1">
          <mxGeometry x="160" y="-430" width="120" height="60" as="geometry" />
        </mxCell>
        <mxCell id="-9gFP3Wba35itGXk4Bwu-14" style="edgeStyle=orthogonalEdgeStyle;rounded=0;orthogonalLoop=1;jettySize=auto;html=1;exitX=0.5;exitY=1;exitDx=0;exitDy=0;" edge="1" parent="1" source="-9gFP3Wba35itGXk4Bwu-15">
          <mxGeometry relative="1" as="geometry">
            <mxPoint x="1030" y="-90" as="targetPoint" />
          </mxGeometry>
        </mxCell>
        <mxCell id="-9gFP3Wba35itGXk4Bwu-15" value="&lt;span style=&quot;font-weight: 700;&quot;&gt;Client&lt;/span&gt;" style="rounded=1;whiteSpace=wrap;html=1;" vertex="1" parent="1">
          <mxGeometry x="970" y="-420" width="120" height="60" as="geometry" />
        </mxCell>
        <mxCell id="-9gFP3Wba35itGXk4Bwu-16" style="edgeStyle=orthogonalEdgeStyle;rounded=0;orthogonalLoop=1;jettySize=auto;html=1;exitX=0.5;exitY=1;exitDx=0;exitDy=0;" edge="1" parent="1" source="-9gFP3Wba35itGXk4Bwu-17">
          <mxGeometry relative="1" as="geometry">
            <mxPoint x="600" y="-100" as="targetPoint" />
          </mxGeometry>
        </mxCell>
        <mxCell id="-9gFP3Wba35itGXk4Bwu-17" value="&lt;span style=&quot;font-weight: 700;&quot;&gt;Auth&lt;/span&gt;" style="rounded=1;whiteSpace=wrap;html=1;" vertex="1" parent="1">
          <mxGeometry x="540" y="-430" width="120" height="60" as="geometry" />
        </mxCell>
        <mxCell id="-9gFP3Wba35itGXk4Bwu-20" value="&lt;div&gt;Delete JWT&lt;/div&gt;" style="rounded=0;whiteSpace=wrap;html=1;" vertex="1" parent="1">
          <mxGeometry x="970" y="-230" width="120" height="60" as="geometry" />
        </mxCell>
        <mxCell id="-9gFP3Wba35itGXk4Bwu-21" value="/api/users/signout" style="rounded=0;whiteSpace=wrap;html=1;" vertex="1" parent="1">
          <mxGeometry x="160" y="-330" width="120" height="60" as="geometry" />
        </mxCell>
        <mxCell id="-9gFP3Wba35itGXk4Bwu-22" value="" style="endArrow=classic;html=1;rounded=0;entryX=1;entryY=0.5;entryDx=0;entryDy=0;" edge="1" parent="1" target="-9gFP3Wba35itGXk4Bwu-21">
          <mxGeometry width="50" height="50" relative="1" as="geometry">
            <mxPoint x="1030" y="-300" as="sourcePoint" />
            <mxPoint x="700" y="-310" as="targetPoint" />
          </mxGeometry>
        </mxCell>
        <mxCell id="-9gFP3Wba35itGXk4Bwu-23" style="edgeStyle=orthogonalEdgeStyle;rounded=0;orthogonalLoop=1;jettySize=auto;html=1;exitX=1;exitY=0.5;exitDx=0;exitDy=0;entryX=0;entryY=0.5;entryDx=0;entryDy=0;" edge="1" parent="1" target="-9gFP3Wba35itGXk4Bwu-20">
          <mxGeometry relative="1" as="geometry">
            <mxPoint x="220" y="-200.59000000000003" as="sourcePoint" />
            <mxPoint x="540" y="-200" as="targetPoint" />
          </mxGeometry>
        </mxCell>
        <mxCell id="-9gFP3Wba35itGXk4Bwu-24" style="edgeStyle=orthogonalEdgeStyle;rounded=0;orthogonalLoop=1;jettySize=auto;html=1;exitX=0.5;exitY=1;exitDx=0;exitDy=0;" edge="1" parent="1" source="-9gFP3Wba35itGXk4Bwu-25">
          <mxGeometry relative="1" as="geometry">
            <mxPoint x="600" y="350" as="targetPoint" />
          </mxGeometry>
        </mxCell>
        <mxCell id="-9gFP3Wba35itGXk4Bwu-25" value="&lt;span style=&quot;font-weight: 700;&quot;&gt;API&lt;/span&gt;" style="rounded=1;whiteSpace=wrap;html=1;" vertex="1" parent="1">
          <mxGeometry x="540" y="30" width="120" height="60" as="geometry" />
        </mxCell>
        <mxCell id="-9gFP3Wba35itGXk4Bwu-26" style="edgeStyle=orthogonalEdgeStyle;rounded=0;orthogonalLoop=1;jettySize=auto;html=1;exitX=0.5;exitY=1;exitDx=0;exitDy=0;" edge="1" parent="1" source="-9gFP3Wba35itGXk4Bwu-27">
          <mxGeometry relative="1" as="geometry">
            <mxPoint x="1030" y="370" as="targetPoint" />
          </mxGeometry>
        </mxCell>
        <mxCell id="-9gFP3Wba35itGXk4Bwu-27" value="&lt;span style=&quot;font-weight: 700;&quot;&gt;Client&lt;/span&gt;" style="rounded=1;whiteSpace=wrap;html=1;" vertex="1" parent="1">
          <mxGeometry x="970" y="40" width="120" height="60" as="geometry" />
        </mxCell>
        <mxCell id="-9gFP3Wba35itGXk4Bwu-28" style="edgeStyle=orthogonalEdgeStyle;rounded=0;orthogonalLoop=1;jettySize=auto;html=1;exitX=0.5;exitY=1;exitDx=0;exitDy=0;" edge="1" parent="1" source="-9gFP3Wba35itGXk4Bwu-36">
          <mxGeometry relative="1" as="geometry">
            <mxPoint x="240" y="360" as="targetPoint" />
          </mxGeometry>
        </mxCell>
        <mxCell id="-9gFP3Wba35itGXk4Bwu-29" value="&lt;span style=&quot;font-weight: 700;&quot;&gt;Auth&lt;/span&gt;" style="rounded=1;whiteSpace=wrap;html=1;" vertex="1" parent="1">
          <mxGeometry x="180" y="30" width="120" height="60" as="geometry" />
        </mxCell>
        <mxCell id="-9gFP3Wba35itGXk4Bwu-30" value="&lt;div&gt;return status;&lt;/div&gt;" style="rounded=0;whiteSpace=wrap;html=1;" vertex="1" parent="1">
          <mxGeometry x="970" y="240" width="120" height="60" as="geometry" />
        </mxCell>
        <mxCell id="-9gFP3Wba35itGXk4Bwu-34" style="edgeStyle=none;rounded=0;orthogonalLoop=1;jettySize=auto;html=1;exitX=0;exitY=0.5;exitDx=0;exitDy=0;" edge="1" parent="1" source="-9gFP3Wba35itGXk4Bwu-31">
          <mxGeometry relative="1" as="geometry">
            <mxPoint x="240" y="160.57142857142867" as="targetPoint" />
          </mxGeometry>
        </mxCell>
        <mxCell id="-9gFP3Wba35itGXk4Bwu-31" value="/api/users/current-user" style="rounded=0;whiteSpace=wrap;html=1;" vertex="1" parent="1">
          <mxGeometry x="540" y="130" width="120" height="60" as="geometry" />
        </mxCell>
        <mxCell id="-9gFP3Wba35itGXk4Bwu-32" value="" style="endArrow=classic;html=1;rounded=0;entryX=1;entryY=0.5;entryDx=0;entryDy=0;" edge="1" parent="1" target="-9gFP3Wba35itGXk4Bwu-31">
          <mxGeometry width="50" height="50" relative="1" as="geometry">
            <mxPoint x="1030" y="160" as="sourcePoint" />
            <mxPoint x="700" y="150" as="targetPoint" />
          </mxGeometry>
        </mxCell>
        <mxCell id="-9gFP3Wba35itGXk4Bwu-33" style="edgeStyle=orthogonalEdgeStyle;rounded=0;orthogonalLoop=1;jettySize=auto;html=1;entryX=0;entryY=0.5;entryDx=0;entryDy=0;exitX=1;exitY=0.5;exitDx=0;exitDy=0;" edge="1" parent="1" target="-9gFP3Wba35itGXk4Bwu-30" source="-9gFP3Wba35itGXk4Bwu-36">
          <mxGeometry relative="1" as="geometry">
            <mxPoint x="380" y="270" as="sourcePoint" />
            <mxPoint x="540" y="260" as="targetPoint" />
          </mxGeometry>
        </mxCell>
        <mxCell id="-9gFP3Wba35itGXk4Bwu-35" value="res.session?.jwt" style="text;html=1;align=center;verticalAlign=middle;whiteSpace=wrap;rounded=0;" vertex="1" parent="1">
          <mxGeometry x="770" y="120" width="60" height="30" as="geometry" />
        </mxCell>
        <mxCell id="-9gFP3Wba35itGXk4Bwu-37" value="" style="edgeStyle=orthogonalEdgeStyle;rounded=0;orthogonalLoop=1;jettySize=auto;html=1;exitX=0.5;exitY=1;exitDx=0;exitDy=0;" edge="1" parent="1" source="-9gFP3Wba35itGXk4Bwu-29" target="-9gFP3Wba35itGXk4Bwu-36">
          <mxGeometry relative="1" as="geometry">
            <mxPoint x="240" y="360" as="targetPoint" />
            <mxPoint x="240" y="90" as="sourcePoint" />
          </mxGeometry>
        </mxCell>
        <mxCell id="-9gFP3Wba35itGXk4Bwu-36" value="jwt.verify(res.session.jwt, &quot;secretKey&quot;);" style="rounded=0;whiteSpace=wrap;html=1;" vertex="1" parent="1">
          <mxGeometry x="180" y="240" width="120" height="60" as="geometry" />
        </mxCell>
      </root>
    </mxGraphModel>
  </diagram>
</mxfile>
